<svg width="109" height="33" viewBox="0 0 109 33" fill="none" xmlns="http://www.w3.org/2000/svg">
<g id="iconAppStoreEN_noinline.a731d99c8218d6faa0e83a6d038d08e8" clip-path="url(#clip0_720_8944)">
<path id="Vector" d="M104.535 32.375H4.159C3.15607 32.3729 2.19482 31.9735 1.48564 31.2644C0.776463 30.5552 0.377114 29.5939 0.375 28.591L0.375 4.159C0.375 2.071 2.071 0.375 4.159 0.375H104.535C105.544 0.374893 106.512 0.771767 107.231 1.47984C107.949 2.18791 108.36 3.1503 108.375 4.159V28.591C108.36 29.5997 107.949 30.5621 107.231 31.2702C106.512 31.9782 105.544 32.3751 104.535 32.375Z" fill="#A6A6A6"/>
<path id="Vector_2" d="M107.599 28.591C107.599 29.4036 107.276 30.1829 106.702 30.7575C106.127 31.3322 105.348 31.655 104.535 31.655H4.15898C3.75593 31.656 3.35664 31.5775 2.98398 31.424C2.61131 31.2705 2.27259 31.045 1.98723 30.7604C1.70186 30.4758 1.47545 30.1376 1.32097 29.7654C1.16649 29.3931 1.08697 28.994 1.08698 28.591V4.15097C1.0912 3.339 1.41673 2.56173 1.99238 1.98907C2.56803 1.41642 3.34699 1.09496 4.15898 1.09497H104.535C104.938 1.09497 105.337 1.17449 105.709 1.32897C106.082 1.48345 106.42 1.70986 106.704 1.99522C106.989 2.28059 107.215 2.61931 107.368 2.99197C107.522 3.36464 107.6 3.76393 107.599 4.16697V28.599V28.591Z" fill="black"/>
<g id="Group">
<path id="Vector_3" d="M24.479 16.1991C24.455 13.6231 26.591 12.3671 26.687 12.3111C26.2633 11.7059 25.7042 11.2078 25.0543 10.8565C24.4044 10.5051 23.6815 10.3102 22.943 10.2871C21.375 10.1271 19.847 11.2311 19.047 11.2311C18.223 11.2311 16.991 10.3031 15.663 10.3351C14.8027 10.3635 13.9644 10.6142 13.2298 11.0628C12.4951 11.5114 11.8892 12.1427 11.471 12.8951C9.65502 16.0231 11.007 20.6391 12.751 23.1751C13.615 24.4151 14.631 25.8071 15.951 25.7591C17.255 25.7031 17.743 24.9271 19.311 24.9271C20.871 24.9271 21.327 25.7591 22.671 25.7271C24.071 25.7031 24.951 24.4791 25.791 23.2231C26.4154 22.3389 26.896 21.3615 27.215 20.3271C26.4037 19.9842 25.7114 19.4097 25.2248 18.6755C24.7381 17.9413 24.4787 17.0799 24.479 16.1991ZM21.919 8.61507C22.6767 7.70359 23.0497 6.53289 22.959 5.35107C21.7998 5.4739 20.729 6.02784 19.959 6.90307C19.5818 7.33216 19.293 7.83143 19.1091 8.3723C18.9251 8.91317 18.8497 9.48501 18.887 10.0551C19.4684 10.0603 20.0435 9.93335 20.5687 9.6839C21.0939 9.43445 21.5556 9.06899 21.919 8.61507Z" fill="white"/>
</g>
<g id="Group_2">
<path id="Vector_4" d="M43.295 25.5749H41.471L40.479 22.4549H37.023L36.071 25.5749H34.303L37.727 14.9349H39.847L43.287 25.5749H43.295ZM40.175 21.1349L39.279 18.3589C39.183 18.0789 39.007 17.3989 38.743 16.3589H38.711C38.607 16.8069 38.439 17.4789 38.207 18.3589L37.327 21.1429H40.183L40.175 21.1349ZM52.103 21.6469C52.103 22.9509 51.751 23.9829 51.047 24.7429C50.7494 25.0688 50.3856 25.3274 49.98 25.5013C49.5743 25.6751 49.1362 25.7602 48.695 25.7509C47.679 25.7509 46.959 25.3909 46.511 24.6629H46.479V28.7029H44.775V20.4309C44.775 19.6069 44.751 18.7669 44.711 17.9029H46.215L46.311 19.1189H46.343C46.6081 18.6765 46.9888 18.3147 47.444 18.0723C47.8993 17.8299 48.4119 17.716 48.927 17.7429C49.839 17.7429 50.591 18.1029 51.199 18.8149C51.799 19.5349 52.103 20.4789 52.103 21.6469ZM50.367 21.7109C50.367 20.9589 50.199 20.3509 49.863 19.8629C49.6993 19.6203 49.4772 19.4228 49.2172 19.2886C48.9571 19.1544 48.6675 19.0878 48.375 19.0949C47.959 19.0949 47.575 19.2309 47.231 19.5109C46.887 19.7909 46.671 20.1509 46.559 20.6069C46.511 20.8229 46.479 20.9909 46.479 21.1269V22.4069C46.479 22.9669 46.655 23.4469 46.999 23.8229C47.343 24.1989 47.783 24.3989 48.327 24.3989C48.967 24.3989 49.471 24.1589 49.831 23.6629C50.191 23.1669 50.367 22.5109 50.367 21.7029V21.7109ZM60.935 21.6469C60.935 22.9509 60.583 23.9829 59.871 24.7429C59.5738 25.0693 59.21 25.3281 58.8043 25.502C58.3986 25.6759 57.9603 25.7607 57.519 25.7509C56.511 25.7509 55.783 25.3909 55.343 24.6629H55.311V28.7029H53.607V20.4309C53.607 19.6069 53.583 18.7669 53.543 17.9029H55.039L55.135 19.1189H55.167C55.4328 18.6753 55.8147 18.3127 56.2715 18.0702C56.7283 17.8277 57.2426 17.7145 57.759 17.7429C58.663 17.7429 59.423 18.1029 60.031 18.8149C60.6642 19.6189 60.9853 20.6247 60.935 21.6469ZM59.199 21.7109C59.199 20.9589 59.031 20.3509 58.687 19.8629C58.5231 19.623 58.3019 19.4278 58.0434 19.295C57.785 19.1623 57.4975 19.0963 57.207 19.1029C56.783 19.1029 56.407 19.2389 56.063 19.5189C55.719 19.7989 55.495 20.1589 55.391 20.6149C55.335 20.8309 55.311 20.9989 55.311 21.1349V22.4149C55.311 22.9749 55.479 23.4549 55.823 23.8309C56.167 24.2149 56.607 24.4069 57.159 24.4069C57.799 24.4069 58.303 24.1669 58.663 23.6709C59.015 23.1749 59.199 22.5189 59.199 21.7109ZM70.807 22.5909C70.807 23.4949 70.487 24.2309 69.863 24.8069C69.0458 25.4697 68.0091 25.801 66.959 25.7349C65.9946 25.7803 65.0372 25.55 64.199 25.0709L64.599 23.6469C65.343 24.1029 66.167 24.3269 67.063 24.3269C67.703 24.3269 68.207 24.1829 68.567 23.8949C68.919 23.6069 69.103 23.2149 69.103 22.7349C69.103 22.3029 68.951 21.9349 68.655 21.6389C68.2289 21.2664 67.7305 20.9859 67.191 20.8149C65.327 20.1189 64.391 19.1029 64.391 17.7669C64.391 16.8869 64.719 16.1669 65.375 15.6069C66.023 15.0549 66.895 14.7749 67.983 14.7749C68.943 14.7749 69.751 14.9429 70.399 15.2789L69.967 16.6709C69.367 16.3509 68.687 16.1829 67.935 16.1829C67.335 16.1829 66.863 16.3269 66.527 16.6229C66.239 16.8869 66.103 17.2069 66.103 17.5829C66.103 18.0069 66.263 18.3589 66.583 18.6309C66.871 18.8869 67.383 19.1589 68.135 19.4549C69.055 19.8229 69.727 20.2549 70.159 20.7509C70.591 21.2389 70.799 21.8549 70.799 22.5909H70.807ZM76.447 19.1749H74.567V22.9109C74.567 23.8549 74.895 24.3269 75.559 24.3269C75.863 24.3269 76.119 24.3029 76.319 24.2469L76.367 25.5429C76.031 25.6709 75.591 25.7349 75.039 25.7349C74.367 25.7349 73.839 25.5269 73.455 25.1189C73.079 24.7109 72.895 24.0149 72.895 23.0469V19.1829H71.775V17.9029H72.895V16.4949L74.567 15.9909V17.9029H76.447V19.1829V19.1749ZM84.935 21.6789C84.935 22.8549 84.591 23.8229 83.919 24.5829C83.5633 24.9713 83.1269 25.2772 82.6404 25.4789C82.1539 25.6807 81.6292 25.7735 81.103 25.7509C79.983 25.7509 79.079 25.3749 78.415 24.6309C77.751 23.8869 77.407 22.9429 77.407 21.8069C77.407 20.6069 77.751 19.6469 78.447 18.8789C78.8007 18.4988 79.233 18.2003 79.7138 18.0041C80.1946 17.8079 80.7123 17.7188 81.231 17.7429C82.351 17.7429 83.263 18.1189 83.951 18.8629C84.599 19.5909 84.927 20.5269 84.927 21.6789H84.935ZM83.159 21.7349C83.159 21.0229 83.007 20.4149 82.703 19.9109C82.5597 19.6283 82.3395 19.392 82.0678 19.2292C81.796 19.0664 81.4837 18.9838 81.167 18.9909C80.487 18.9909 79.967 19.2949 79.607 19.9109C79.2867 20.4757 79.1289 21.118 79.151 21.7669C79.151 22.4709 79.295 23.0789 79.607 23.5829C79.975 24.1989 80.487 24.5029 81.151 24.5029C81.807 24.5029 82.319 24.1909 82.687 23.5669C83.007 23.0549 83.159 22.4389 83.159 21.7269V21.7349ZM90.471 19.3989C90.2941 19.3667 90.1147 19.3506 89.935 19.3509C89.335 19.3509 88.871 19.5829 88.543 20.0309C88.2451 20.4803 88.0967 21.0122 88.119 21.5509V25.5749H86.415L86.431 20.3189C86.431 19.4389 86.407 18.6309 86.367 17.9029H87.847L87.911 19.3669H87.959C88.143 18.8629 88.423 18.4629 88.815 18.1509C89.191 17.8789 89.599 17.7509 90.047 17.7509C90.207 17.7509 90.343 17.7509 90.471 17.7749V19.3989ZM98.103 21.3749C98.1069 21.635 98.0855 21.8949 98.039 22.1509H92.919C92.943 22.9109 93.191 23.4869 93.663 23.8869C94.095 24.2469 94.655 24.4229 95.343 24.4229C96.095 24.4229 96.783 24.3029 97.407 24.0629L97.671 25.2469C96.8571 25.5818 95.9829 25.7452 95.103 25.7269C94.5886 25.7539 94.0743 25.6739 93.5924 25.4922C93.1105 25.3104 92.6714 25.0308 92.303 24.6709C91.9532 24.2919 91.6824 23.8469 91.5066 23.362C91.3308 22.8771 91.2534 22.3621 91.279 21.8469C91.279 20.6949 91.599 19.7269 92.223 18.9669C92.542 18.5635 92.9517 18.241 93.4187 18.0255C93.8858 17.8101 94.397 17.7078 94.911 17.7269C96.015 17.7269 96.855 18.1429 97.423 18.9589C97.871 19.6149 98.103 20.4149 98.103 21.3749ZM96.471 20.9349C96.4944 20.4747 96.3802 20.018 96.143 19.6229C95.847 19.1429 95.391 18.9109 94.783 18.9109C94.223 18.9109 93.775 19.1429 93.423 19.6069C93.1323 19.9927 92.9575 20.4534 92.919 20.9349H96.471Z" fill="white"/>
</g>
<g id="Group_3">
<path id="Vector_5" d="M39.615 8.37505C39.615 9.32705 39.335 10.031 38.767 10.511C38.127 10.9867 37.3387 11.2192 36.543 11.167C36.063 11.167 35.663 11.143 35.319 11.103V5.95905C35.759 5.88705 36.239 5.85505 36.759 5.85505C37.679 5.85505 38.359 6.05505 38.839 6.44705C39.351 6.90305 39.615 7.54305 39.615 8.38305V8.37505ZM38.735 8.40705C38.735 7.79905 38.575 7.32705 38.247 6.99905C37.927 6.67905 37.447 6.51905 36.831 6.51905C36.567 6.51905 36.343 6.52705 36.151 6.56705V10.479C36.255 10.495 36.447 10.503 36.719 10.503C37.359 10.503 37.855 10.319 38.207 9.96705C38.559 9.61505 38.735 9.08705 38.735 8.40705ZM44.295 9.20705C44.295 9.78305 44.135 10.263 43.807 10.631C43.455 11.015 42.999 11.207 42.423 11.207C42.1759 11.2179 41.9294 11.174 41.7013 11.0786C41.4731 10.9832 41.2688 10.8385 41.103 10.655C40.7679 10.2734 40.5906 9.77862 40.607 9.27105C40.607 8.68705 40.775 8.20705 41.119 7.83105C41.463 7.45505 41.919 7.27105 42.479 7.27105C43.039 7.27105 43.487 7.45505 43.823 7.83105C44.143 8.18305 44.303 8.63905 44.303 9.20705H44.295ZM43.431 9.23105C43.431 8.88705 43.351 8.59105 43.207 8.33505C43.1364 8.19727 43.0284 8.08217 42.8954 8.00294C42.7624 7.9237 42.6097 7.88354 42.455 7.88705C42.119 7.88705 41.863 8.03905 41.687 8.33505C41.535 8.58305 41.463 8.89505 41.463 9.24705C41.463 9.59105 41.543 9.88705 41.687 10.143C41.871 10.439 42.119 10.591 42.447 10.591C42.767 10.591 43.023 10.439 43.199 10.135C43.359 9.87905 43.439 9.57505 43.439 9.23105H43.431ZM50.591 7.35105L49.407 11.119H48.639L48.151 9.48705C48.023 9.07105 47.927 8.67105 47.847 8.26305H47.831C47.759 8.67905 47.655 9.08705 47.527 9.48705L47.007 11.119H46.231L45.127 7.35105H45.975L46.407 9.14305C46.503 9.56705 46.591 9.96705 46.663 10.351H46.671C46.735 10.031 46.839 9.63105 46.991 9.15105L47.519 7.35105H48.207L48.719 9.11105C48.839 9.54305 48.943 9.95905 49.023 10.351H49.039C49.103 9.96705 49.183 9.55105 49.295 9.11105L49.759 7.35105H50.575H50.591ZM54.935 11.119H54.095V8.95905C54.095 8.29505 53.839 7.96705 53.335 7.96705C53.2196 7.96325 53.1049 7.98576 52.9996 8.03289C52.8942 8.08002 52.801 8.15052 52.727 8.23905C52.575 8.42305 52.495 8.63905 52.495 8.87905V11.119H51.655V8.43105C51.655 8.09505 51.655 7.73505 51.631 7.35105H52.367L52.407 7.93505H52.431C52.527 7.75905 52.671 7.60705 52.863 7.48705C53.087 7.34305 53.343 7.27105 53.623 7.27105C53.975 7.27105 54.263 7.38305 54.503 7.61505C54.791 7.89505 54.935 8.31105 54.935 8.86305V11.119ZM57.247 11.119H56.407V5.62305H57.247V11.119ZM62.183 9.20705C62.183 9.78305 62.023 10.263 61.687 10.631C61.335 11.015 60.879 11.207 60.303 11.207C60.0559 11.2179 59.8094 11.174 59.5813 11.0786C59.3531 10.9832 59.1488 10.8385 58.983 10.655C58.6479 10.2734 58.4706 9.77862 58.487 9.27105C58.487 8.68705 58.655 8.20705 58.999 7.83105C59.343 7.45505 59.791 7.27105 60.359 7.27105C60.919 7.27105 61.367 7.45505 61.703 7.83105C62.023 8.18305 62.183 8.63905 62.183 9.20705ZM61.311 9.23105C61.311 8.88705 61.231 8.59105 61.087 8.33505C61.0164 8.19727 60.9084 8.08217 60.7754 8.00294C60.6424 7.9237 60.4897 7.88354 60.335 7.88705C59.999 7.88705 59.743 8.03905 59.567 8.33505C59.415 8.58305 59.343 8.89505 59.343 9.24705C59.343 9.59105 59.423 9.88705 59.567 10.143C59.751 10.439 59.999 10.591 60.327 10.591C60.647 10.591 60.895 10.439 61.079 10.135C61.239 9.87905 61.311 9.57505 61.311 9.23105ZM66.239 11.119H65.487L65.423 10.687H65.399C65.143 11.031 64.775 11.207 64.295 11.207C63.943 11.207 63.655 11.095 63.439 10.863C63.3415 10.7608 63.2651 10.6404 63.2143 10.5086C63.1635 10.3768 63.1393 10.2362 63.143 10.095C63.143 9.63905 63.335 9.28705 63.719 9.03905C64.111 8.79905 64.647 8.67905 65.351 8.68705V8.61505C65.351 8.11905 65.087 7.87105 64.567 7.87105C64.191 7.87105 63.863 7.96705 63.583 8.15105L63.415 7.59905C63.759 7.38305 64.191 7.27905 64.703 7.27905C65.687 7.27905 66.183 7.79105 66.183 8.83105V10.223C66.183 10.599 66.199 10.895 66.239 11.119ZM65.367 9.82305V9.24705C64.447 9.23105 63.983 9.48705 63.983 10.007C63.983 10.199 64.031 10.351 64.143 10.447C64.247 10.543 64.383 10.591 64.551 10.591C64.735 10.591 64.911 10.535 65.063 10.423C65.1587 10.3553 65.2364 10.2653 65.2893 10.1607C65.3423 10.0562 65.369 9.94025 65.367 9.82305ZM70.999 11.119H70.255L70.223 10.519H70.199C69.959 10.975 69.559 11.207 68.983 11.207C68.527 11.207 68.151 11.031 67.855 10.671C67.559 10.311 67.399 9.85505 67.399 9.28705C67.399 8.67105 67.559 8.17505 67.895 7.79905C68.215 7.44705 68.591 7.27105 69.055 7.27105C69.559 7.27105 69.919 7.44705 70.119 7.78305H70.135V5.62305H70.975V10.103C70.975 10.471 70.983 10.807 70.999 11.119ZM70.135 9.53505V8.89505C70.1427 8.75123 70.1179 8.60752 70.0625 8.47458C70.0071 8.34163 69.9225 8.22286 69.815 8.12705C69.655 7.99105 69.463 7.92705 69.247 7.92705C68.927 7.92705 68.687 8.04705 68.511 8.29505C68.3203 8.57787 68.225 8.91423 68.239 9.25505C68.239 9.62305 68.319 9.92705 68.495 10.159C68.679 10.407 68.927 10.535 69.231 10.535C69.503 10.535 69.727 10.431 69.895 10.215C70.055 10.031 70.135 9.79905 70.135 9.52705V9.53505ZM78.175 9.20705C78.175 9.78305 78.015 10.263 77.679 10.631C77.327 11.015 76.871 11.207 76.295 11.207C75.735 11.207 75.303 11.023 74.975 10.655C74.6399 10.2734 74.4626 9.77862 74.479 9.27105C74.479 8.68705 74.647 8.20705 74.991 7.83105C75.335 7.45505 75.783 7.27105 76.351 7.27105C76.911 7.27105 77.359 7.45505 77.695 7.83105C78.015 8.18305 78.175 8.63905 78.175 9.20705ZM77.303 9.23105C77.303 8.88705 77.223 8.59105 77.079 8.33505C77.0076 8.19787 76.8995 8.08329 76.7667 8.00416C76.6338 7.92503 76.4816 7.88447 76.327 7.88705C75.991 7.88705 75.735 8.03905 75.559 8.33505C75.407 8.58305 75.335 8.89505 75.335 9.24705C75.335 9.59105 75.415 9.88705 75.559 10.143C75.743 10.439 75.991 10.591 76.319 10.591C76.639 10.591 76.887 10.439 77.071 10.135C77.231 9.87905 77.311 9.57505 77.311 9.23105H77.303ZM82.679 11.119H81.847V8.95905C81.847 8.29505 81.591 7.96705 81.079 7.96705C80.839 7.96705 80.631 8.04705 80.479 8.23905C80.327 8.43105 80.239 8.63905 80.239 8.87905V11.119H79.415V8.43105C79.415 8.09505 79.407 7.73505 79.383 7.35105H80.119L80.159 7.93505H80.183C80.279 7.75905 80.423 7.60705 80.615 7.48705C80.847 7.34305 81.095 7.27105 81.375 7.27105C81.727 7.27105 82.015 7.38305 82.255 7.61505C82.543 7.89505 82.687 8.31105 82.687 8.86305V11.119H82.679ZM88.327 7.97505H87.399V9.81505C87.399 10.279 87.559 10.511 87.887 10.511C88.047 10.511 88.167 10.495 88.263 10.471L88.287 11.111C88.119 11.167 87.903 11.199 87.631 11.199C87.303 11.199 87.047 11.095 86.855 10.895C86.671 10.695 86.575 10.359 86.575 9.87905V7.97505H86.031V7.35105H86.575V6.65505L87.399 6.41505V7.35105H88.327V7.97505ZM92.759 11.119H91.919V8.97505C91.919 8.30305 91.671 7.96705 91.167 7.96705C90.775 7.96705 90.511 8.15905 90.367 8.55105C90.335 8.63105 90.327 8.73505 90.327 8.85505V11.119H89.487V5.62305H90.327V7.89505H90.343C90.607 7.47905 90.983 7.27105 91.471 7.27105C91.823 7.27105 92.111 7.38305 92.335 7.61505C92.623 7.89505 92.759 8.31905 92.759 8.87905V11.119ZM97.335 9.05505C97.335 9.21505 97.335 9.33505 97.311 9.43905H94.791C94.807 9.80705 94.927 10.095 95.159 10.287C95.375 10.463 95.639 10.551 95.983 10.551C96.351 10.551 96.695 10.495 96.999 10.375L97.127 10.959C96.775 11.119 96.351 11.199 95.863 11.199C95.279 11.199 94.823 11.023 94.487 10.679C94.151 10.335 93.991 9.87105 93.991 9.28705C93.991 8.72705 94.143 8.24705 94.455 7.87105C94.6114 7.6727 94.8125 7.51421 95.042 7.40853C95.2714 7.30285 95.5226 7.253 95.775 7.26305C96.311 7.26305 96.727 7.47105 97.007 7.87105C97.231 8.19105 97.343 8.59105 97.343 9.05505H97.335ZM96.535 8.83905C96.543 8.59905 96.495 8.37505 96.375 8.19905C96.3061 8.08613 96.2081 7.99385 96.0913 7.93191C95.9744 7.86997 95.8431 7.84065 95.711 7.84705C95.5806 7.84596 95.452 7.87673 95.3363 7.93669C95.2206 7.99664 95.1213 8.08396 95.047 8.19105C94.903 8.36705 94.823 8.59105 94.791 8.83905H96.543H96.535Z" fill="white"/>
</g>
</g>
<defs>
<clipPath id="clip0_720_8944">
<rect width="108" height="32" fill="white" transform="translate(0.375 0.375)"/>
</clipPath>
</defs>
</svg>
