<svg width="109" height="33" viewBox="0 0 109 33" fill="none" xmlns="http://www.w3.org/2000/svg">
<g id="iconGooglePlayEN_noinline.9892833785b26dd5896b7c70b089f684" clip-path="url(#clip0_720_8953)">
<path id="Vector" d="M104.535 32.375H4.135C3.13779 32.375 2.18142 31.9789 1.47628 31.2737C0.771142 30.5686 0.375 29.6122 0.375 28.615L0.375 4.135C0.375 2.055 2.055 0.375 4.135 0.375H104.535C106.615 0.375 108.375 2.055 108.375 4.135V28.535C108.375 30.695 106.615 32.375 104.535 32.375Z" fill="#A6A6A6"/>
<path id="Vector_2" d="M107.575 28.615C107.575 30.295 106.215 31.655 104.535 31.655H4.13497C3.32871 31.655 2.55548 31.3347 1.98537 30.7646C1.41526 30.1945 1.09497 29.4212 1.09497 28.615V4.13497C1.09497 2.45497 2.45497 1.09497 4.13497 1.09497H104.535C106.215 1.09497 107.575 2.45497 107.575 4.13497V28.615Z" fill="black"/>
<path id="Vector_3" d="M38.295 8.53494C38.295 9.09494 38.135 9.73494 37.655 10.1349C37.3034 10.4898 36.8529 10.7303 36.3624 10.8248C35.8718 10.9193 35.3642 10.8634 34.9059 10.6646C34.4477 10.4657 34.0602 10.1331 33.7941 9.71024C33.5281 9.28743 33.396 8.79412 33.415 8.29494C33.415 7.65494 33.655 7.01494 34.135 6.53494C34.615 6.05494 35.255 5.81494 35.895 5.81494L36.855 5.97494C37.175 6.05494 37.415 6.29494 37.575 6.53494L37.175 6.93494C37.0179 6.75087 36.8211 6.60485 36.5994 6.50785C36.3777 6.41085 36.1368 6.36541 35.895 6.37494C34.855 6.37494 34.055 7.17494 34.055 8.21494V8.29494C34.055 9.33494 34.855 10.2149 35.895 10.2149C36.375 10.2149 36.855 10.0549 37.255 9.65494C37.495 9.41494 37.655 9.01494 37.655 8.69494H35.895V8.21494H38.215L38.295 8.53494ZM41.975 6.53494H39.815V8.05494H41.815V8.61494H39.815V10.1349H41.975V10.7749H39.175V5.97494H41.975V6.53494ZM44.615 10.7749H43.975V6.53494H42.615V5.97494H45.975V6.53494H44.615V10.7749ZM48.295 10.7749V5.97494H48.935V10.7749H48.295ZM51.655 10.7749H51.015V6.53494H49.655V5.97494H52.935V6.53494H51.575V10.7749H51.655ZM59.255 10.1349C59.0245 10.3671 58.7503 10.5514 58.4482 10.6772C58.1462 10.803 57.8222 10.8677 57.495 10.8677C57.1678 10.8677 56.8438 10.803 56.5418 10.6772C56.2397 10.5514 55.9655 10.3671 55.735 10.1349C54.775 9.17494 54.775 7.57494 55.735 6.61494C56.695 5.65494 58.295 5.65494 59.255 6.61494C59.4872 6.84546 59.6715 7.11965 59.7973 7.42172C59.923 7.72378 59.9878 8.04774 59.9878 8.37494C59.9878 8.70214 59.923 9.0261 59.7973 9.32817C59.6715 9.63023 59.4872 9.90442 59.255 10.1349ZM56.215 9.73494C56.935 10.4549 58.135 10.4549 58.855 9.73494C59.575 8.93494 59.575 7.73494 58.855 7.01494C58.135 6.29494 56.935 6.29494 56.215 7.01494C55.495 7.81494 55.495 8.93494 56.215 9.73494ZM60.855 10.7749V5.97494H61.575L63.895 9.73494V5.97494H64.535V10.7749H63.895L61.415 6.85494V10.7749H60.855Z" fill="white" stroke="white" stroke-width="0.2" stroke-miterlimit="10"/>
<path id="Vector_4" d="M54.855 17.8149C53.9711 17.836 53.1311 18.2046 52.5171 18.8409C51.9031 19.4772 51.5647 20.3298 51.5753 21.214C51.5858 22.0981 51.9444 22.9425 52.5733 23.564C53.2023 24.1854 54.0508 24.534 54.935 24.534C55.8192 24.534 56.6678 24.1854 57.2967 23.564C57.9256 22.9425 58.2843 22.0981 58.2948 21.214C58.3053 20.3298 57.9669 19.4772 57.353 18.8409C56.739 18.2046 55.899 17.836 55.015 17.8149C54.935 17.7349 54.935 17.7349 54.855 17.8149ZM54.855 23.2549C53.735 23.3349 52.695 22.4549 52.615 21.3349C52.535 20.2149 53.415 19.1749 54.535 19.0949C55.655 19.0149 56.695 19.8949 56.775 21.0149V21.1749C56.855 22.2949 56.055 23.1749 54.855 23.2549C54.935 23.2549 54.935 23.2549 54.855 23.2549ZM47.415 17.8149C46.5311 17.836 45.6911 18.2046 45.0771 18.8409C44.4631 19.4772 44.1247 20.3298 44.1353 21.214C44.1458 22.0981 44.5044 22.9425 45.1333 23.564C45.7623 24.1854 46.6108 24.534 47.495 24.534C48.3792 24.534 49.2278 24.1854 49.8567 23.564C50.4857 22.9425 50.8443 22.0981 50.8548 21.214C50.8653 20.3298 50.5269 19.4772 49.913 18.8409C49.299 18.2046 48.459 17.836 47.575 17.8149C47.495 17.7349 47.495 17.7349 47.415 17.8149ZM47.415 23.2549C46.295 23.3349 45.255 22.4549 45.175 21.3349C45.095 20.2149 45.975 19.1749 47.095 19.0949C48.215 19.0149 49.255 19.8949 49.335 21.0149V21.1749C49.415 22.2949 48.535 23.1749 47.415 23.2549ZM38.535 18.8549V20.2949H41.975C41.895 20.9349 41.655 21.5749 41.175 22.1349C40.455 22.8549 39.495 23.2549 38.535 23.1749C36.375 23.1749 34.695 21.4949 34.695 19.3349C34.695 17.1749 36.375 15.4949 38.535 15.4949C39.495 15.4949 40.455 15.8149 41.175 16.5349L42.215 15.4949C41.4806 14.7691 40.5522 14.2707 39.5414 14.0599C38.5306 13.8491 37.4804 13.9347 36.5171 14.3066C35.5537 14.6784 34.7183 15.3205 34.1113 16.1558C33.5042 16.991 33.1513 17.9839 33.095 19.0149C33.0509 20.4102 33.5528 21.7675 34.4941 22.7984C35.4353 23.8293 36.7416 24.4523 38.135 24.5349H38.535C39.895 24.6149 41.255 24.0549 42.215 23.0949C43.015 22.1349 43.495 20.9349 43.495 19.7349L43.415 18.8549H38.535ZM74.855 19.9749C74.647 19.3675 74.2612 18.8367 73.7476 18.4515C73.234 18.0663 72.6164 17.8445 71.975 17.8149C71.1263 17.8149 70.3124 18.1521 69.7123 18.7522C69.1122 19.3523 68.775 20.1662 68.775 21.0149V21.2549C68.775 23.0949 70.215 24.6149 72.055 24.6149H72.215C72.7738 24.6282 73.3264 24.4948 73.8176 24.2282C74.3089 23.9615 74.7217 23.5708 75.015 23.0949L73.895 22.2949C73.575 22.8549 72.935 23.2549 72.215 23.2549C71.495 23.2549 70.855 22.8549 70.535 22.2149L75.095 20.3749L74.855 19.9749ZM70.135 21.0949C70.055 20.0549 70.855 19.1749 71.895 19.0949C72.455 19.0949 72.935 19.3349 73.175 19.8149L70.135 21.0949ZM66.455 24.3749H67.975V14.3749H66.455V24.3749ZM64.055 18.5349C63.575 18.0549 62.855 17.7349 62.215 17.7349C61.7665 17.7551 61.3265 17.865 60.9211 18.0582C60.5158 18.2513 60.1532 18.5237 59.8549 18.8593C59.5566 19.1949 59.3286 19.5869 59.1843 20.0121C59.0401 20.4373 58.9825 20.8871 59.015 21.3349C59.054 22.1711 59.4036 22.9626 59.9955 23.5545C60.5874 24.1463 61.3789 24.496 62.215 24.5349C62.935 24.5349 63.575 24.2149 63.975 23.7349H64.055V24.2149C64.055 25.4949 63.335 26.2149 62.215 26.2149C61.415 26.2149 60.775 25.7349 60.535 25.0149L59.255 25.5749C59.4986 26.1776 59.92 26.6918 60.4631 27.0491C61.0061 27.4064 61.6451 27.5898 62.295 27.5749C64.055 27.5749 65.495 26.5349 65.495 24.0549V17.9749H64.135L64.055 18.5349ZM62.295 23.2549C61.7506 23.1946 61.2495 22.9297 60.893 22.5138C60.5366 22.0979 60.3514 21.5622 60.375 21.0149C60.455 19.9749 61.255 19.2549 62.295 19.0949C63.335 19.1749 64.135 20.0549 64.135 21.0949V21.1749C64.215 22.2149 63.415 23.1749 62.375 23.2549H62.295ZM81.815 14.3749H78.215V24.3749H79.735V20.6149H81.815C83.495 20.7749 85.015 19.4149 85.175 17.7349C85.335 16.0549 83.975 14.5349 82.295 14.3749H81.815ZM81.815 19.1749H79.735V15.7349H81.895C82.855 15.7349 83.575 16.5349 83.575 17.4149C83.575 18.2949 82.775 19.1749 81.815 19.1749ZM91.015 17.7349C89.895 17.6549 88.855 18.2949 88.375 19.2549L89.735 19.8149C89.975 19.3349 90.535 19.0149 91.095 19.0949C91.895 19.0149 92.615 19.5749 92.695 20.3749V20.4549C92.215 20.2149 91.655 20.0549 91.175 20.0549C89.735 20.0549 88.295 20.8549 88.295 22.2949C88.3357 22.9033 88.6064 23.4734 89.0521 23.8895C89.4979 24.3055 90.0853 24.5363 90.695 24.5349H90.775C91.575 24.6149 92.295 24.2149 92.695 23.5749H92.775V24.3749H94.215V20.5349C94.135 18.7749 92.775 17.7349 91.015 17.7349ZM90.855 23.1749C90.375 23.1749 89.655 22.9349 89.655 22.2949C89.655 21.4949 90.535 21.2549 91.255 21.2549C91.735 21.2549 92.215 21.3349 92.615 21.5749C92.535 22.5349 91.815 23.2549 90.855 23.1749ZM99.335 17.9749L97.655 22.2949H97.575L95.815 17.9749H94.215L96.855 24.0549L95.335 27.4149H96.855L100.935 17.9749H99.335ZM85.895 24.3749H87.415V14.3749H85.895V24.3749Z" fill="white"/>
<path id="Vector_5" d="M8.695 6.375C8.455 6.695 8.295 7.095 8.375 7.495V25.175C8.375 25.575 8.455 25.975 8.775 26.295L8.855 26.375L18.775 16.455V16.215L8.695 6.375Z" fill="url(#paint0_linear_720_8953)"/>
<path id="Vector_6" d="M21.975 19.8149L18.695 16.5349V16.2949L21.975 13.0149H22.055L25.975 15.2549C27.095 15.8949 27.095 16.9349 25.975 17.5749L22.055 19.8149H21.975Z" fill="url(#paint1_linear_720_8953)"/>
<path id="Vector_7" d="M22.055 19.735L18.695 16.375L8.69501 26.375C9.17501 26.775 9.89501 26.775 10.375 26.455L22.055 19.735Z" fill="url(#paint2_linear_720_8953)"/>
<path id="Vector_8" d="M22.055 13.015L10.375 6.37495C9.89501 5.97495 9.17501 5.97495 8.69501 6.37495L18.695 16.375L22.055 13.015Z" fill="url(#paint3_linear_720_8953)"/>
<path id="Vector_9" opacity="0.2" d="M21.975 19.655L10.375 26.215C9.89501 26.535 9.25501 26.535 8.77501 26.215L8.69501 26.295L8.77501 26.375C9.25501 26.695 9.89501 26.695 10.375 26.375L22.055 19.735L21.975 19.655Z" fill="black"/>
<path id="Vector_10" opacity="0.12" d="M8.69498 26.215C8.45498 25.895 8.29498 25.495 8.29498 25.095V25.255C8.29498 25.655 8.37498 26.055 8.69498 26.375V26.215ZM25.975 17.415L21.975 19.655L22.055 19.735L25.975 17.495C26.455 17.255 26.695 16.855 26.775 16.375C26.695 16.855 26.375 17.175 25.975 17.415Z" fill="black"/>
<path id="Vector_11" opacity="0.3" d="M10.375 6.455L25.975 15.335C26.375 15.575 26.695 15.895 26.775 16.375C26.695 15.895 26.455 15.415 25.975 15.255L10.375 6.455C9.255 5.735 8.375 6.295 8.375 7.495V7.575C8.375 6.375 9.255 5.815 10.375 6.455Z" fill="white"/>
</g>
<defs>
<linearGradient id="paint0_linear_720_8953" x1="17.815" y1="7.335" x2="4.375" y2="20.775" gradientUnits="userSpaceOnUse">
<stop stop-color="#00A1FF"/>
<stop offset="0.3" stop-color="#00BEFF"/>
<stop offset="0.5" stop-color="#00D2FF"/>
<stop offset="0.8" stop-color="#00DFFF"/>
<stop offset="1" stop-color="#00E3FF"/>
</linearGradient>
<linearGradient id="paint1_linear_720_8953" x1="27.415" y1="16.3749" x2="8.05501" y2="16.3749" gradientUnits="userSpaceOnUse">
<stop stop-color="#FFE000"/>
<stop offset="0.4" stop-color="#FFBD00"/>
<stop offset="0.8" stop-color="#FFA500"/>
<stop offset="1" stop-color="#FF9C00"/>
</linearGradient>
<linearGradient id="paint2_linear_720_8953" x1="20.215" y1="18.215" x2="2.05501" y2="36.375" gradientUnits="userSpaceOnUse">
<stop stop-color="#FF3A44"/>
<stop offset="1" stop-color="#C31162"/>
</linearGradient>
<linearGradient id="paint3_linear_720_8953" x1="6.21501" y1="0.534951" x2="14.295" y2="8.61495" gradientUnits="userSpaceOnUse">
<stop stop-color="#32A071"/>
<stop offset="0.1" stop-color="#2DA771"/>
<stop offset="0.5" stop-color="#15CF74"/>
<stop offset="0.8" stop-color="#06E775"/>
<stop offset="1" stop-color="#00F076"/>
</linearGradient>
<clipPath id="clip0_720_8953">
<rect width="108" height="32" fill="white" transform="translate(0.375 0.375)"/>
</clipPath>
</defs>
</svg>
